<mxfile host="Electron" modified="2024-05-29T04:08:24.149Z" agent="Mozilla/5.0 (Windows NT 10.0; Win64; x64) AppleWebKit/537.36 (KHTML, like Gecko) draw.io/24.4.0 Chrome/120.0.6099.109 Electron/28.1.0 Safari/537.36" etag="pFDt76eyuiRM6DmXmLbL" version="24.4.0" type="device">
  <diagram id="C5RBs43oDa-KdzZeNtuy" name="Page-1">
    <mxGraphModel dx="613" dy="834" grid="1" gridSize="10" guides="1" tooltips="1" connect="1" arrows="1" fold="1" page="1" pageScale="1" pageWidth="827" pageHeight="1169" math="0" shadow="0">
      <root>
        <mxCell id="WIyWlLk6GJQsqaUBKTNV-0" />
        <mxCell id="WIyWlLk6GJQsqaUBKTNV-1" parent="WIyWlLk6GJQsqaUBKTNV-0" />
        <mxCell id="sGb1tncQzAxA6hbaUur0-0" value="" style="ellipse;html=1;shape=startState;fillColor=#000000;strokeColor=#ff0000;" vertex="1" parent="WIyWlLk6GJQsqaUBKTNV-1">
          <mxGeometry x="270" y="80" width="30" height="30" as="geometry" />
        </mxCell>
        <mxCell id="sGb1tncQzAxA6hbaUur0-1" value="" style="edgeStyle=orthogonalEdgeStyle;html=1;verticalAlign=bottom;endArrow=open;endSize=8;strokeColor=#ff0000;rounded=0;" edge="1" source="sGb1tncQzAxA6hbaUur0-0" parent="WIyWlLk6GJQsqaUBKTNV-1">
          <mxGeometry relative="1" as="geometry">
            <mxPoint x="285" y="170" as="targetPoint" />
          </mxGeometry>
        </mxCell>
        <mxCell id="sGb1tncQzAxA6hbaUur0-2" value="浏览网页" style="rounded=1;whiteSpace=wrap;html=1;arcSize=40;fontColor=#000000;fillColor=#ffffc0;strokeColor=#ff0000;" vertex="1" parent="WIyWlLk6GJQsqaUBKTNV-1">
          <mxGeometry x="225" y="170" width="120" height="40" as="geometry" />
        </mxCell>
        <mxCell id="sGb1tncQzAxA6hbaUur0-3" value="" style="edgeStyle=orthogonalEdgeStyle;html=1;verticalAlign=bottom;endArrow=open;endSize=8;strokeColor=#ff0000;rounded=0;" edge="1" source="sGb1tncQzAxA6hbaUur0-2" parent="WIyWlLk6GJQsqaUBKTNV-1">
          <mxGeometry relative="1" as="geometry">
            <mxPoint x="285" y="270" as="targetPoint" />
          </mxGeometry>
        </mxCell>
        <mxCell id="sGb1tncQzAxA6hbaUur0-4" value="选择购买商品" style="rounded=1;whiteSpace=wrap;html=1;arcSize=40;fontColor=#000000;fillColor=#ffffc0;strokeColor=#ff0000;" vertex="1" parent="WIyWlLk6GJQsqaUBKTNV-1">
          <mxGeometry x="225" y="270" width="120" height="40" as="geometry" />
        </mxCell>
        <mxCell id="sGb1tncQzAxA6hbaUur0-5" value="" style="edgeStyle=orthogonalEdgeStyle;html=1;verticalAlign=bottom;endArrow=open;endSize=8;strokeColor=#ff0000;rounded=0;" edge="1" source="sGb1tncQzAxA6hbaUur0-4" parent="WIyWlLk6GJQsqaUBKTNV-1">
          <mxGeometry relative="1" as="geometry">
            <mxPoint x="285" y="370" as="targetPoint" />
          </mxGeometry>
        </mxCell>
        <mxCell id="sGb1tncQzAxA6hbaUur0-6" value="是否有账号" style="rhombus;whiteSpace=wrap;html=1;fontColor=#000000;fillColor=#ffffc0;strokeColor=#ff0000;" vertex="1" parent="WIyWlLk6GJQsqaUBKTNV-1">
          <mxGeometry x="190" y="370" width="180" height="40" as="geometry" />
        </mxCell>
        <mxCell id="sGb1tncQzAxA6hbaUur0-7" value="no" style="edgeStyle=orthogonalEdgeStyle;html=1;align=left;verticalAlign=bottom;endArrow=open;endSize=8;strokeColor=#ff0000;rounded=0;entryX=0.5;entryY=0;entryDx=0;entryDy=0;" edge="1" source="sGb1tncQzAxA6hbaUur0-6" parent="WIyWlLk6GJQsqaUBKTNV-1" target="sGb1tncQzAxA6hbaUur0-14">
          <mxGeometry x="-1" relative="1" as="geometry">
            <mxPoint x="470" y="390" as="targetPoint" />
          </mxGeometry>
        </mxCell>
        <mxCell id="sGb1tncQzAxA6hbaUur0-8" value="yes" style="edgeStyle=orthogonalEdgeStyle;html=1;align=left;verticalAlign=top;endArrow=open;endSize=8;strokeColor=#ff0000;rounded=0;" edge="1" source="sGb1tncQzAxA6hbaUur0-6" parent="WIyWlLk6GJQsqaUBKTNV-1">
          <mxGeometry x="-1" relative="1" as="geometry">
            <mxPoint x="330" y="470" as="targetPoint" />
          </mxGeometry>
        </mxCell>
        <mxCell id="sGb1tncQzAxA6hbaUur0-12" value="用户登录" style="rounded=1;whiteSpace=wrap;html=1;arcSize=40;fontColor=#000000;fillColor=#ffffc0;strokeColor=#ff0000;" vertex="1" parent="WIyWlLk6GJQsqaUBKTNV-1">
          <mxGeometry x="270" y="470" width="120" height="40" as="geometry" />
        </mxCell>
        <mxCell id="sGb1tncQzAxA6hbaUur0-13" value="" style="edgeStyle=orthogonalEdgeStyle;html=1;verticalAlign=bottom;endArrow=open;endSize=8;strokeColor=#ff0000;rounded=0;" edge="1" source="sGb1tncQzAxA6hbaUur0-12" parent="WIyWlLk6GJQsqaUBKTNV-1" target="sGb1tncQzAxA6hbaUur0-16">
          <mxGeometry relative="1" as="geometry">
            <mxPoint x="330" y="570" as="targetPoint" />
          </mxGeometry>
        </mxCell>
        <mxCell id="sGb1tncQzAxA6hbaUur0-18" value="" style="edgeStyle=orthogonalEdgeStyle;rounded=0;orthogonalLoop=1;jettySize=auto;html=1;" edge="1" parent="WIyWlLk6GJQsqaUBKTNV-1" source="sGb1tncQzAxA6hbaUur0-14" target="sGb1tncQzAxA6hbaUur0-16">
          <mxGeometry relative="1" as="geometry" />
        </mxCell>
        <mxCell id="sGb1tncQzAxA6hbaUur0-14" value="注册账号" style="rounded=1;whiteSpace=wrap;html=1;arcSize=40;fontColor=#000000;fillColor=#ffffc0;strokeColor=#ff0000;" vertex="1" parent="WIyWlLk6GJQsqaUBKTNV-1">
          <mxGeometry x="470" y="470" width="120" height="40" as="geometry" />
        </mxCell>
        <mxCell id="sGb1tncQzAxA6hbaUur0-16" value="" style="shape=line;html=1;strokeWidth=6;strokeColor=#ff0000;" vertex="1" parent="WIyWlLk6GJQsqaUBKTNV-1">
          <mxGeometry x="330" y="559.9999999999998" width="200" height="10" as="geometry" />
        </mxCell>
        <mxCell id="sGb1tncQzAxA6hbaUur0-17" value="" style="edgeStyle=orthogonalEdgeStyle;html=1;verticalAlign=bottom;endArrow=open;endSize=8;strokeColor=#ff0000;rounded=0;" edge="1" source="sGb1tncQzAxA6hbaUur0-16" parent="WIyWlLk6GJQsqaUBKTNV-1">
          <mxGeometry relative="1" as="geometry">
            <mxPoint x="430" y="620" as="targetPoint" />
          </mxGeometry>
        </mxCell>
        <mxCell id="sGb1tncQzAxA6hbaUur0-19" value="下单" style="rounded=1;whiteSpace=wrap;html=1;arcSize=40;fontColor=#000000;fillColor=#ffffc0;strokeColor=#ff0000;" vertex="1" parent="WIyWlLk6GJQsqaUBKTNV-1">
          <mxGeometry x="370" y="620" width="120" height="40" as="geometry" />
        </mxCell>
        <mxCell id="sGb1tncQzAxA6hbaUur0-20" value="" style="edgeStyle=orthogonalEdgeStyle;html=1;verticalAlign=bottom;endArrow=open;endSize=8;strokeColor=#ff0000;rounded=0;" edge="1" source="sGb1tncQzAxA6hbaUur0-19" parent="WIyWlLk6GJQsqaUBKTNV-1">
          <mxGeometry relative="1" as="geometry">
            <mxPoint x="430" y="720" as="targetPoint" />
          </mxGeometry>
        </mxCell>
        <mxCell id="sGb1tncQzAxA6hbaUur0-21" value="结算" style="rounded=1;whiteSpace=wrap;html=1;arcSize=40;fontColor=#000000;fillColor=#ffffc0;strokeColor=#ff0000;" vertex="1" parent="WIyWlLk6GJQsqaUBKTNV-1">
          <mxGeometry x="370" y="720" width="120" height="40" as="geometry" />
        </mxCell>
        <mxCell id="sGb1tncQzAxA6hbaUur0-22" value="" style="edgeStyle=orthogonalEdgeStyle;html=1;verticalAlign=bottom;endArrow=open;endSize=8;strokeColor=#ff0000;rounded=0;" edge="1" source="sGb1tncQzAxA6hbaUur0-21" parent="WIyWlLk6GJQsqaUBKTNV-1">
          <mxGeometry relative="1" as="geometry">
            <mxPoint x="430" y="820" as="targetPoint" />
          </mxGeometry>
        </mxCell>
        <mxCell id="sGb1tncQzAxA6hbaUur0-23" value="选择结算方式" style="rounded=1;whiteSpace=wrap;html=1;arcSize=40;fontColor=#000000;fillColor=#ffffc0;strokeColor=#ff0000;" vertex="1" parent="WIyWlLk6GJQsqaUBKTNV-1">
          <mxGeometry x="370" y="820" width="120" height="40" as="geometry" />
        </mxCell>
        <mxCell id="sGb1tncQzAxA6hbaUur0-24" value="" style="edgeStyle=orthogonalEdgeStyle;html=1;verticalAlign=bottom;endArrow=open;endSize=8;strokeColor=#ff0000;rounded=0;" edge="1" source="sGb1tncQzAxA6hbaUur0-23" parent="WIyWlLk6GJQsqaUBKTNV-1">
          <mxGeometry relative="1" as="geometry">
            <mxPoint x="430" y="920" as="targetPoint" />
          </mxGeometry>
        </mxCell>
        <mxCell id="sGb1tncQzAxA6hbaUur0-25" value="" style="shape=line;html=1;strokeWidth=6;strokeColor=#ff0000;" vertex="1" parent="WIyWlLk6GJQsqaUBKTNV-1">
          <mxGeometry x="330" y="920" width="200" height="10" as="geometry" />
        </mxCell>
        <mxCell id="sGb1tncQzAxA6hbaUur0-44" value="" style="edgeStyle=orthogonalEdgeStyle;rounded=0;orthogonalLoop=1;jettySize=auto;html=1;" edge="1" parent="WIyWlLk6GJQsqaUBKTNV-1" source="sGb1tncQzAxA6hbaUur0-27" target="sGb1tncQzAxA6hbaUur0-41">
          <mxGeometry relative="1" as="geometry" />
        </mxCell>
        <mxCell id="sGb1tncQzAxA6hbaUur0-27" value="使用余额宝支付" style="rounded=1;whiteSpace=wrap;html=1;arcSize=40;fontColor=#000000;fillColor=#ffffc0;strokeColor=#ff0000;" vertex="1" parent="WIyWlLk6GJQsqaUBKTNV-1">
          <mxGeometry x="450" y="1010" width="120" height="40" as="geometry" />
        </mxCell>
        <mxCell id="sGb1tncQzAxA6hbaUur0-43" value="" style="edgeStyle=orthogonalEdgeStyle;rounded=0;orthogonalLoop=1;jettySize=auto;html=1;" edge="1" parent="WIyWlLk6GJQsqaUBKTNV-1" source="sGb1tncQzAxA6hbaUur0-29" target="sGb1tncQzAxA6hbaUur0-41">
          <mxGeometry relative="1" as="geometry" />
        </mxCell>
        <mxCell id="sGb1tncQzAxA6hbaUur0-29" value="使用花呗支付" style="rounded=1;whiteSpace=wrap;html=1;arcSize=40;fontColor=#000000;fillColor=#ffffc0;strokeColor=#ff0000;" vertex="1" parent="WIyWlLk6GJQsqaUBKTNV-1">
          <mxGeometry x="270" y="1010" width="120" height="40" as="geometry" />
        </mxCell>
        <mxCell id="sGb1tncQzAxA6hbaUur0-31" value="使用余额支付" style="rounded=1;whiteSpace=wrap;html=1;arcSize=40;fontColor=#000000;fillColor=#ffffc0;strokeColor=#ff0000;" vertex="1" parent="WIyWlLk6GJQsqaUBKTNV-1">
          <mxGeometry x="120" y="1010" width="120" height="40" as="geometry" />
        </mxCell>
        <mxCell id="sGb1tncQzAxA6hbaUur0-33" value="使用银行卡支付" style="rounded=1;whiteSpace=wrap;html=1;arcSize=40;fontColor=#000000;fillColor=#ffffc0;strokeColor=#ff0000;" vertex="1" parent="WIyWlLk6GJQsqaUBKTNV-1">
          <mxGeometry x="610" y="1010" width="120" height="40" as="geometry" />
        </mxCell>
        <mxCell id="sGb1tncQzAxA6hbaUur0-37" value="" style="endArrow=open;endFill=1;endSize=12;html=1;rounded=0;exitX=0.523;exitY=1.094;exitDx=0;exitDy=0;exitPerimeter=0;entryX=0.5;entryY=0;entryDx=0;entryDy=0;" edge="1" parent="WIyWlLk6GJQsqaUBKTNV-1" source="sGb1tncQzAxA6hbaUur0-25" target="sGb1tncQzAxA6hbaUur0-27">
          <mxGeometry width="160" relative="1" as="geometry">
            <mxPoint x="350" y="1080" as="sourcePoint" />
            <mxPoint x="510" y="1080" as="targetPoint" />
          </mxGeometry>
        </mxCell>
        <mxCell id="sGb1tncQzAxA6hbaUur0-38" value="" style="endArrow=open;endFill=1;endSize=12;html=1;rounded=0;exitX=0.471;exitY=1;exitDx=0;exitDy=0;exitPerimeter=0;entryX=0.5;entryY=0;entryDx=0;entryDy=0;" edge="1" parent="WIyWlLk6GJQsqaUBKTNV-1" source="sGb1tncQzAxA6hbaUur0-25" target="sGb1tncQzAxA6hbaUur0-29">
          <mxGeometry width="160" relative="1" as="geometry">
            <mxPoint x="350" y="1080" as="sourcePoint" />
            <mxPoint x="510" y="1080" as="targetPoint" />
          </mxGeometry>
        </mxCell>
        <mxCell id="sGb1tncQzAxA6hbaUur0-39" value="" style="endArrow=open;endFill=1;endSize=12;html=1;rounded=0;exitX=0.494;exitY=0.341;exitDx=0;exitDy=0;exitPerimeter=0;entryX=0.593;entryY=0.071;entryDx=0;entryDy=0;entryPerimeter=0;" edge="1" parent="WIyWlLk6GJQsqaUBKTNV-1" source="sGb1tncQzAxA6hbaUur0-25" target="sGb1tncQzAxA6hbaUur0-33">
          <mxGeometry width="160" relative="1" as="geometry">
            <mxPoint x="350" y="1080" as="sourcePoint" />
            <mxPoint x="510" y="1080" as="targetPoint" />
          </mxGeometry>
        </mxCell>
        <mxCell id="sGb1tncQzAxA6hbaUur0-40" value="" style="endArrow=open;endFill=1;endSize=12;html=1;rounded=0;exitX=0.48;exitY=0.718;exitDx=0;exitDy=0;exitPerimeter=0;entryX=0.5;entryY=0;entryDx=0;entryDy=0;" edge="1" parent="WIyWlLk6GJQsqaUBKTNV-1" source="sGb1tncQzAxA6hbaUur0-25" target="sGb1tncQzAxA6hbaUur0-31">
          <mxGeometry width="160" relative="1" as="geometry">
            <mxPoint x="350" y="1080" as="sourcePoint" />
            <mxPoint x="510" y="1080" as="targetPoint" />
          </mxGeometry>
        </mxCell>
        <mxCell id="sGb1tncQzAxA6hbaUur0-41" value="" style="shape=line;html=1;strokeWidth=6;strokeColor=#ff0000;" vertex="1" parent="WIyWlLk6GJQsqaUBKTNV-1">
          <mxGeometry x="330" y="1160" width="200" height="10" as="geometry" />
        </mxCell>
        <mxCell id="sGb1tncQzAxA6hbaUur0-42" value="" style="edgeStyle=orthogonalEdgeStyle;html=1;verticalAlign=bottom;endArrow=open;endSize=8;strokeColor=#ff0000;rounded=0;" edge="1" source="sGb1tncQzAxA6hbaUur0-41" parent="WIyWlLk6GJQsqaUBKTNV-1">
          <mxGeometry relative="1" as="geometry">
            <mxPoint x="430" y="1240" as="targetPoint" />
          </mxGeometry>
        </mxCell>
        <mxCell id="sGb1tncQzAxA6hbaUur0-45" value="" style="endArrow=open;endFill=1;endSize=12;html=1;rounded=0;entryX=0.513;entryY=0.341;entryDx=0;entryDy=0;entryPerimeter=0;" edge="1" parent="WIyWlLk6GJQsqaUBKTNV-1" source="sGb1tncQzAxA6hbaUur0-33" target="sGb1tncQzAxA6hbaUur0-41">
          <mxGeometry width="160" relative="1" as="geometry">
            <mxPoint x="350" y="1080" as="sourcePoint" />
            <mxPoint x="510" y="1080" as="targetPoint" />
          </mxGeometry>
        </mxCell>
        <mxCell id="sGb1tncQzAxA6hbaUur0-46" value="" style="endArrow=open;endFill=1;endSize=12;html=1;rounded=0;exitX=0.441;exitY=1.012;exitDx=0;exitDy=0;exitPerimeter=0;" edge="1" parent="WIyWlLk6GJQsqaUBKTNV-1" source="sGb1tncQzAxA6hbaUur0-31">
          <mxGeometry width="160" relative="1" as="geometry">
            <mxPoint x="350" y="1080" as="sourcePoint" />
            <mxPoint x="430" y="1160" as="targetPoint" />
          </mxGeometry>
        </mxCell>
        <mxCell id="sGb1tncQzAxA6hbaUur0-50" value="确认支付" style="rounded=1;whiteSpace=wrap;html=1;arcSize=40;fontColor=#000000;fillColor=#ffffc0;strokeColor=#ff0000;" vertex="1" parent="WIyWlLk6GJQsqaUBKTNV-1">
          <mxGeometry x="370" y="1240" width="120" height="40" as="geometry" />
        </mxCell>
        <mxCell id="sGb1tncQzAxA6hbaUur0-51" value="" style="edgeStyle=orthogonalEdgeStyle;html=1;verticalAlign=bottom;endArrow=open;endSize=8;strokeColor=#ff0000;rounded=0;" edge="1" source="sGb1tncQzAxA6hbaUur0-50" parent="WIyWlLk6GJQsqaUBKTNV-1">
          <mxGeometry relative="1" as="geometry">
            <mxPoint x="430" y="1340" as="targetPoint" />
          </mxGeometry>
        </mxCell>
        <mxCell id="sGb1tncQzAxA6hbaUur0-52" value="支付完成" style="rounded=1;whiteSpace=wrap;html=1;arcSize=40;fontColor=#000000;fillColor=#ffffc0;strokeColor=#ff0000;" vertex="1" parent="WIyWlLk6GJQsqaUBKTNV-1">
          <mxGeometry x="370" y="1340" width="120" height="40" as="geometry" />
        </mxCell>
        <mxCell id="sGb1tncQzAxA6hbaUur0-53" value="" style="edgeStyle=orthogonalEdgeStyle;html=1;verticalAlign=bottom;endArrow=open;endSize=8;strokeColor=#ff0000;rounded=0;" edge="1" source="sGb1tncQzAxA6hbaUur0-52" parent="WIyWlLk6GJQsqaUBKTNV-1">
          <mxGeometry relative="1" as="geometry">
            <mxPoint x="430" y="1440" as="targetPoint" />
          </mxGeometry>
        </mxCell>
        <mxCell id="sGb1tncQzAxA6hbaUur0-54" value="购物完成" style="rounded=1;whiteSpace=wrap;html=1;arcSize=40;fontColor=#000000;fillColor=#ffffc0;strokeColor=#ff0000;" vertex="1" parent="WIyWlLk6GJQsqaUBKTNV-1">
          <mxGeometry x="370" y="1440" width="120" height="40" as="geometry" />
        </mxCell>
        <mxCell id="sGb1tncQzAxA6hbaUur0-55" value="" style="edgeStyle=orthogonalEdgeStyle;html=1;verticalAlign=bottom;endArrow=open;endSize=8;strokeColor=#ff0000;rounded=0;" edge="1" source="sGb1tncQzAxA6hbaUur0-54" parent="WIyWlLk6GJQsqaUBKTNV-1">
          <mxGeometry relative="1" as="geometry">
            <mxPoint x="430" y="1540" as="targetPoint" />
          </mxGeometry>
        </mxCell>
        <mxCell id="sGb1tncQzAxA6hbaUur0-56" value="" style="ellipse;html=1;shape=endState;fillColor=#000000;strokeColor=#ff0000;" vertex="1" parent="WIyWlLk6GJQsqaUBKTNV-1">
          <mxGeometry x="413" y="1540" width="30" height="30" as="geometry" />
        </mxCell>
      </root>
    </mxGraphModel>
  </diagram>
</mxfile>
